<?xml version="1.0" encoding="utf-8"?>
<!-- Generator: Adobe Illustrator 18.0.0, SVG Export Plug-In . SVG Version: 6.00 Build 0)  -->
<!DOCTYPE svg PUBLIC "-//W3C//DTD SVG 1.1//EN" "http://www.w3.org/Graphics/SVG/1.1/DTD/svg11.dtd">
<svg version="1.1" id="Layer_1" xmlns="http://www.w3.org/2000/svg" xmlns:xlink="http://www.w3.org/1999/xlink" x="0px" y="0px"
	 viewBox="0 0 200 115.5" enable-background="new 0 0 200 115.5" xml:space="preserve">
<g>
	<defs>
		<rect id="SVGID_1_" x="0" y="5.6" width="199.9" height="105.2"/>
	</defs>
	<clipPath id="SVGID_2_">
		<use xlink:href="#SVGID_1_"  overflow="visible"/>
	</clipPath>
	<g clip-path="url(#SVGID_2_)">
		<path fill="#BABCBE" d="M44.7,63.4l0,1.3c5.1-0.2,10.1,0.1,15.1,0.8c-0.2-0.5-0.5-1-0.7-1.5C54.3,63.4,49.5,63.2,44.7,63.4z"/>
		<path fill="#F0F1F1" d="M143.6,63.8c-6.1,0.7-11.4,1.9-16.2,3.8c-1.2,0.4-2.4,0.9-3.5,1.4c-1.9,0.8-3.9,1.7-5.9,2.3
			c-3.7,1.1-7.9,1.8-12.8,1.9c-11.9,0.4-20.7-2.6-26.5-4.6c-0.6-0.2-1.2-0.4-1.7-0.6c-5.8-1.9-11.8-3.3-17.8-4
			c0.2,0.5,0.5,1,0.7,1.5c5.6,0.8,11.2,2,16.7,3.8c0.5,0.2,1.1,0.4,1.7,0.6c5.5,1.9,13.7,4.7,24.7,4.7c0.8,0,1.6,0,2.4,0
			c5-0.2,9.3-0.8,13.1-2c2.1-0.6,4.1-1.5,6.1-2.3c1.1-0.5,2.3-1,3.5-1.4c4.6-1.7,9.6-2.9,15.3-3.6c0.4-0.5,0.7-1,1.1-1.5
			C144,63.7,143.8,63.7,143.6,63.8z"/>
		<path fill="#BABCBE" d="M162.1,62.6l-6.1,0.3c-3.9,0.2-7.9,0.4-11.8,0.8c-0.4,0.5-0.7,1-1.1,1.5c0.2,0,0.4,0,0.6-0.1
			c4.1-0.5,8.3-0.7,12.4-0.9l6.1-0.3L162.1,62.6z"/>
	</g>
	<g clip-path="url(#SVGID_2_)">
		<path fill="#D08E83" d="M206.9,80.8c-1.4-0.3-2.7,0.1-4.1,0.2c-1.9,0.2-4,0.1-5.6-1c-1.2-0.8-2-2.2-3.3-2.8
			c-0.8-0.3-1.7-0.3-2.6-0.4c-1.8-0.2-3.5-0.8-4.8-2.1c0.6,2.1,1.4,4.3,2.9,5.9c2.1,2.3,5.2,3.4,8.3,4.3c2,0.6,4.1,1.1,6.3,0.9
			c2.7-0.2,5.3-1.4,7.4-3.1c-0.2-0.1-0.5-0.2-0.7-0.3C209.4,81.9,208.2,81.1,206.9,80.8z"/>
		<path fill="#D08E83" d="M187.9,55.3c0.9-1.2,1.9-2.6,3.3-3.2c0.9-0.4,1.8-0.4,2.7-0.8c1.5-0.7,2.5-2.3,4.1-2.8
			c1.5-0.5,3.1,0.2,4.6-0.1c0.8-0.2,1.5-0.6,2.3-0.8c0.8-0.3,1.6-0.4,2.4,0c1,0.5,1.3,1.7,1.8,2.6c0.6,1.2,1.5,2.3,2.4,3.3
			c0.6,0.7,1.3,1.5,1.9,2.2c0.6,0.7,1.2,1.4,2,2c1,0.8,2.1,1.5,3.3,2c-0.1-1.6-0.3-3.2-0.6-4.8c-0.8-3.6-2.5-7-4.3-10.3
			c-1.2-2-2.5-4-4.2-5.5c-4-3.6-10.7-4.6-15.1-1.2c-2.4,1.8-4,4.4-5.2,7.1c-2,4.2-3.3,8.7-3.8,13.3
			C186.3,57.4,187.1,56.4,187.9,55.3z"/>
		<path fill="#ECB4AA" d="M215.3,57.8c-0.7-0.6-1.3-1.3-2-2c-0.6-0.7-1.3-1.5-1.9-2.2c-0.9-1-1.8-2.1-2.4-3.3
			c-0.5-1-0.8-2.2-1.8-2.6c-0.7-0.4-1.6-0.2-2.4,0c-0.8,0.3-1.5,0.7-2.3,0.8c-1.5,0.3-3.1-0.4-4.6,0.1c-1.6,0.5-2.6,2.2-4.1,2.8
			c-0.8,0.4-1.8,0.4-2.7,0.8c-1.4,0.6-2.4,1.9-3.3,3.2c-0.8,1.1-1.7,2.1-2.6,3c-0.7,5.5-0.3,11.1,1.2,16.4c0,0,0,0.1,0,0.1
			c1.3,1.2,3,1.9,4.8,2.1c0.9,0.1,1.8,0.1,2.6,0.4c1.3,0.6,2.1,1.9,3.3,2.8c1.6,1.1,3.7,1.2,5.6,1c1.4-0.2,2.8-0.5,4.1-0.2
			c1.3,0.2,2.5,1,3.7,1.7c0.2,0.1,0.5,0.2,0.7,0.3c1.1-0.9,2.1-2.1,2.9-3.3c2.3-3.4,3.4-7.6,3.9-11.6c0.4-2.7,0.6-5.5,0.5-8.2
			C217.4,59.2,216.3,58.6,215.3,57.8z"/>
	</g>
	<g clip-path="url(#SVGID_2_)">
		<path fill="#D08E83" d="M12.8,78.2c-1.3-0.2-2.5,0.4-3.6,1.1c-1.1,0.7-2.2,1.5-3.4,1.8c-0.8,0.2-1.7,0.1-2.5,0.2
			c-1.8,0.2-3.5,1.1-4.8,2.4c0,0,0,0-0.1,0.1c0,0,0.1,0,0.1,0.1c1.5,0.6,3.3,0.7,4.9,0.6c4.6-0.3,9-2.4,11.7-5.4c0,0,0,0-0.1,0
			C14.3,78.8,13.6,78.3,12.8,78.2z"/>
		<path fill="#D08E83" d="M-2.6,51.7c2.7-1.6,5-4.2,8.1-4.8c0.8-0.1,1.6-0.2,2.5-0.3c2.5-0.4,4.6-2.2,5.9-4.4c0.2-0.3,0.3-0.6,0.5-1
			c-0.2-0.2-0.3-0.4-0.5-0.6c-3.1-3.5-7.1-6.6-11.8-8.7c-2.6-1.2-3.9-1.2-6.2,0.4c-1.9,1.3-3.4,3-4.5,4.9c-1.5,2.5-2.2,5.3-2.7,8
			c-0.8,3.7-1.4,7.5-1.6,11.2c0.6-0.4,1.1-0.7,1.7-1C-8.4,54-5.3,53.3-2.6,51.7z"/>
		<path fill="#ECB4AA" d="M21.5,55.2c-1.3-4.9-3.7-9.7-7.2-13.9c-0.2,0.3-0.3,0.6-0.5,1c-1.3,2.2-3.4,3.9-5.9,4.4
			c-0.8,0.1-1.6,0.1-2.5,0.3c-3.1,0.6-5.4,3.1-8.1,4.8c-2.7,1.6-5.8,2.3-8.6,3.8c-0.6,0.3-1.2,0.7-1.7,1c-0.1,2.4,0,4.9,0.3,7.3
			c0.8,6.2,3.2,12.3,7.8,17.3c0.9,1,2,2,3.3,2.6c0,0,0,0,0.1-0.1c1.2-1.3,3-2.2,4.8-2.4c0.8-0.1,1.7,0,2.5-0.2
			c1.3-0.3,2.3-1.1,3.4-1.8c1.1-0.7,2.4-1.3,3.6-1.1c0.8,0.1,1.5,0.6,2.3,0.8c0,0,0,0,0.1,0c0.8-0.9,1.5-1.8,1.9-2.9
			c1.8-3.8,1.2-7.9,0.8-12c-0.1-1.5,0.7-2.9,2-3.5c0.7-0.3,1.3-0.9,1.6-1.5C22.1,57.9,21.9,56.5,21.5,55.2z"/>
	</g>
	<g clip-path="url(#SVGID_2_)">
		<path fill="#ECB4AA" d="M43.1,78c-1.2-1.6-3.3-2.4-5.2-2.8c-2-0.5-4-0.7-5.8-1.8c-0.2-0.1-0.4-0.3-0.6-0.4
			c0.4,2.3,0.8,4.6,0.1,6.8c-0.5,1.7-1.7,3.1-2.8,4.5c-2.2,2.7-6.4,6.5-9.5,8C11.7,95.8-3.2,93-5.8,93.4c-5,0.6-5.7-1.1-10.7-1.4
			c-0.9-0.1-1.9-0.1-2.5,0.6c-0.3,0.4-0.4,0.8-0.5,1.3c-0.3,1.6,0.2,4.8-0.1,6.5c-0.2,1.3-0.3,2.6,0.2,3.8c0.6,1.3,4.7,4.9,6.1,5.3
			c4.5,1.2,10.1,1.7,14.7,1.5c5.6-0.2,19.6-1.1,24.5-3.8c5.8-3.1,12.9-10.1,16.2-15.8c1.3-2.2,2.4-4.6,3.4-7
			c-0.3-0.5-0.5-1.1-0.7-1.7C44.4,81,44.1,79.3,43.1,78z"/>
		<path fill="#D08E83" d="M48.5,65.2c-1.2-1.1-2.9-1.3-4.4-0.8c-4.8,1.7-8.9,4.7-12.6,8.3c0,0.1,0,0.2,0,0.3
			c0.2,0.1,0.4,0.3,0.6,0.4c1.8,1,3.8,1.3,5.8,1.8c2,0.5,4,1.2,5.2,2.8c1,1.3,1.2,3,1.7,4.6c0.2,0.6,0.4,1.2,0.7,1.7
			C47.9,78.2,48.9,71.7,48.5,65.2z"/>
	</g>
	<g clip-path="url(#SVGID_2_)">
		<path fill="#4AA1D6" d="M53.4,54.8c-0.1-0.2-0.1-0.4-0.2-0.5c-0.2-0.1-0.4-0.2-0.6-0.2c-0.5-0.1-1-0.1-1.5-0.2
			c0,0.2,0.1,0.3,0.1,0.5c0.2,0.7,0.3,1.5,0.2,2.2c-0.1,0.7-0.5,1.5-1.1,1.9c-1,0.6-2.3,0-3.3-0.6c-1.3,1.4-3.8,1.4-5.1,0
			c-1.3,1.1-3.4,1.1-4.8,0c-0.1-0.1-0.2-0.2-0.4-0.2c-0.1,0-0.2,0.1-0.3,0.2c-1.1,1-2.9,1-4-0.1c-0.6-0.6-1-1.5-1.3-2.3
			c-0.4-0.9-0.8-1.8-1.2-2.6c-0.1,0-0.1,0-0.2,0c-1.7,0-3.4,0-5,0.1c0,0.1,0,0.1,0,0.2c1.5,6.3,1.7,12.8,0.7,19.2
			c-0.1,0.5-0.2,1-0.4,1.5c-0.1,0.2-0.2,0.5-0.3,0.7c3.2-0.3,6.4-0.7,9.6-1c0.4-1.3,0.9-2.5,1.4-3.7c0.3-0.7,0.6-1.4,1-1.9
			c0.1-0.1,0.2-0.3,0.4-0.3c0.3,0,0.4,0.4,0.5,0.7c0.3,1.6,0.3,3.3,0.2,4.9c5-0.6,9.9-1.2,14.8-1.8c0.3,0,0.5-0.1,0.8-0.2
			c0.3-0.2,0.4-0.6,0.4-0.9C54.9,65.3,54.8,59.9,53.4,54.8z"/>
		<path fill="#285A82" d="M32.4,58c1,1,2.9,1,4,0.1c0.1-0.1,0.2-0.1,0.3-0.2c0.1,0,0.3,0.1,0.4,0.2c1.3,1.1,3.4,1.1,4.8,0
			c1.3,1.4,3.8,1.4,5.1,0c1,0.6,2.3,1.1,3.3,0.6c0.7-0.4,1-1.1,1.1-1.9c0.1-0.7-0.1-1.5-0.2-2.2c0-0.2-0.1-0.3-0.1-0.5
			c-0.4,0-0.8-0.1-1.3-0.1c-6.6-0.7-13.2-0.8-19.8-0.7c0.5,0.8,0.9,1.7,1.2,2.6C31.5,56.5,31.8,57.3,32.4,58z"/>
		<path fill="#285A82" d="M37.7,68.4c-0.1-0.3-0.2-0.7-0.5-0.7c-0.2,0-0.3,0.1-0.4,0.3c-0.5,0.6-0.8,1.3-1,1.9
			c-0.5,1.2-1,2.5-1.4,3.7c1.2-0.1,2.3-0.3,3.5-0.4C38,71.7,37.9,70,37.7,68.4z"/>
	</g>
	<path clip-path="url(#SVGID_2_)" fill="#285A82" d="M25.4,72.5c1-6.4,0.8-12.9-0.7-19.2c-1.1,6.9-1,14.5,0.1,21.4c0,0,0,0,0,0
		c0.1-0.2,0.2-0.4,0.3-0.7C25.2,73.5,25.3,73,25.4,72.5z"/>
	<path clip-path="url(#SVGID_2_)" fill="#ECB4AA" d="M47.2,56.1c0.2,0.4,0.5,0.8,0.8,1c0.3,0.2,0.7,0.3,1.1,0.3c0.7,0,1.4,0,1.9-0.4
		c0.5-0.4,0.8-1.1,0.7-1.7c0-0.7-0.3-1.3-0.7-1.8c-0.8-1.3-2.3-2.2-3.8-2.3c-0.5,0-1,0.1-1.5,0.4C44.3,52.7,46.5,55,47.2,56.1z"/>
	<path clip-path="url(#SVGID_2_)" fill="#ECB4AA" d="M42.1,56.1c0.2,0.4,0.5,0.8,0.8,1c0.3,0.2,0.7,0.3,1.1,0.3c0.7,0,1.4,0,1.9-0.4
		c0.5-0.4,0.8-1.1,0.7-1.7c0-0.7-0.3-1.3-0.7-1.8c-0.8-1.3-2.3-2.2-3.8-2.3c-0.5,0-1,0.1-1.5,0.4C39.2,52.7,41.4,55,42.1,56.1z"/>
	<path clip-path="url(#SVGID_2_)" fill="#ECB4AA" d="M37,56.1c0.2,0.4,0.5,0.8,0.8,1c0.3,0.2,0.7,0.3,1.1,0.3c0.7,0,1.4,0,1.9-0.4
		c0.5-0.4,0.8-1.1,0.7-1.7c0-0.7-0.3-1.3-0.7-1.8c-0.8-1.3-2.3-2.2-3.8-2.3c-0.5,0-1,0.1-1.5,0.4C34.1,52.7,36.3,55,37,56.1z"/>
	<path clip-path="url(#SVGID_2_)" fill="#ECB4AA" d="M31.9,56.1c0.2,0.4,0.5,0.8,0.8,1c0.3,0.2,0.7,0.3,1.1,0.3c0.7,0,1.4,0,1.9-0.4
		c0.5-0.4,0.8-1.1,0.7-1.7c0-0.7-0.3-1.3-0.7-1.8c-0.8-1.3-2.3-2.2-3.8-2.3c-0.5,0-1,0.1-1.5,0.4C29,52.7,31.2,55,31.9,56.1z"/>
	<path clip-path="url(#SVGID_2_)" fill="#ECB4AA" d="M32,67.5c1-1.1,2.6-2,4-1.5c1.4,0.5,2.1,2.2,1.6,3.6c-0.2,0.4-0.4,0.8-0.5,1.3
		c-0.1,0.4-0.2,0.8-0.3,1.2c-0.3,1.1-1.2,2-2.2,2.5c-1,0.5-2.2,0.6-3.3,0.6C27.1,74.8,30.6,69.1,32,67.5z"/>
	<g clip-path="url(#SVGID_2_)">
		<path fill="#ECB4AA" d="M158.3,78c1.2-1.6,3.3-2.4,5.2-2.8c2-0.5,4-0.7,5.8-1.8c0.2-0.1,0.4-0.3,0.6-0.4c-0.4,2.3-0.8,4.6-0.1,6.8
			c0.5,1.7,1.7,3.1,2.8,4.5c2.2,2.7,6.4,6.5,9.5,8c7.6,3.6,22.5,0.8,25.1,1.1c5,0.6,5.7-1.1,10.7-1.4c0.9-0.1,1.9-0.1,2.5,0.6
			c0.3,0.4,0.4,0.8,0.5,1.3c0.3,1.6-0.2,4.8,0.1,6.5c0.2,1.3,0.3,2.6-0.2,3.8c-0.6,1.3-4.7,4.9-6.1,5.3c-4.5,1.2-10.1,1.7-14.7,1.5
			c-5.6-0.2-19.6-1.1-24.5-3.8c-5.8-3.1-12.9-10.1-16.2-15.8c-1.3-2.2-2.4-4.6-3.3-7c0.3-0.5,0.5-1.1,0.7-1.7
			C157.1,81,157.4,79.3,158.3,78z"/>
		<path fill="#D08E83" d="M152.9,65.2c1.2-1.1,2.9-1.3,4.4-0.8c4.8,1.7,8.9,4.7,12.6,8.3c0,0.1,0,0.2,0,0.3
			c-0.2,0.1-0.4,0.3-0.6,0.4c-1.8,1-3.8,1.3-5.8,1.8c-2,0.5-4,1.2-5.2,2.8c-1,1.3-1.2,3-1.7,4.6c-0.2,0.6-0.4,1.2-0.7,1.7
			C153.6,78.2,152.6,71.7,152.9,65.2z"/>
	</g>
	<g clip-path="url(#SVGID_2_)">
		<path fill="#4AA1D6" d="M148.1,54.8c0.1-0.2,0.1-0.4,0.2-0.5c0.2-0.1,0.4-0.2,0.6-0.2c0.5-0.1,1-0.1,1.5-0.2
			c0,0.2-0.1,0.3-0.1,0.5c-0.2,0.7-0.3,1.5-0.2,2.2c0.1,0.7,0.5,1.5,1.1,1.9c1,0.6,2.3,0,3.3-0.6c1.3,1.4,3.8,1.4,5.1,0
			c1.3,1.1,3.4,1.1,4.8,0c0.1-0.1,0.2-0.2,0.4-0.2c0.1,0,0.2,0.1,0.3,0.2c1.1,1,2.9,1,4-0.1c0.6-0.6,0.9-1.5,1.3-2.3
			c0.4-0.9,0.8-1.8,1.2-2.6c0.1,0,0.1,0,0.2,0c1.7,0,3.4,0,5,0.1c0,0.1,0,0.1,0,0.2c-1.5,6.3-1.7,12.8-0.7,19.2
			c0.1,0.5,0.2,1,0.4,1.5c0.1,0.2,0.2,0.5,0.3,0.7c-3.2-0.3-6.4-0.7-9.6-1c-0.4-1.3-0.9-2.5-1.4-3.7c-0.3-0.7-0.6-1.4-1-1.9
			c-0.1-0.1-0.2-0.3-0.4-0.3c-0.3,0-0.4,0.4-0.5,0.7c-0.3,1.6-0.3,3.3-0.2,4.9c-5-0.6-9.9-1.2-14.8-1.8c-0.3,0-0.5-0.1-0.8-0.2
			c-0.3-0.2-0.4-0.6-0.4-0.9C146.5,65.3,146.7,59.9,148.1,54.8z"/>
		<path fill="#285A82" d="M169,58c-1,1-2.9,1-4,0.1c-0.1-0.1-0.2-0.1-0.3-0.2c-0.1,0-0.3,0.1-0.4,0.2c-1.3,1.1-3.4,1.1-4.8,0
			c-1.3,1.4-3.8,1.4-5.1,0c-1,0.6-2.3,1.1-3.3,0.6c-0.7-0.4-1-1.1-1.1-1.9c-0.1-0.7,0.1-1.5,0.2-2.2c0-0.2,0.1-0.3,0.1-0.5
			c0.4,0,0.8-0.1,1.3-0.1c6.6-0.7,13.2-0.8,19.8-0.7c-0.5,0.8-0.9,1.7-1.2,2.6C170,56.5,169.6,57.3,169,58z"/>
		<path fill="#285A82" d="M163.8,68.4c0.1-0.3,0.2-0.7,0.5-0.7c0.2,0,0.3,0.1,0.4,0.3c0.5,0.6,0.8,1.3,1,1.9c0.5,1.2,1,2.5,1.4,3.7
			c-1.2-0.1-2.3-0.3-3.5-0.4C163.4,71.7,163.5,70,163.8,68.4z"/>
	</g>
	<path clip-path="url(#SVGID_2_)" fill="#285A82" d="M176,72.5c-1-6.4-0.8-12.9,0.7-19.2c1.1,6.9,1,14.5-0.1,21.4c0,0,0,0,0,0
		c-0.1-0.2-0.2-0.4-0.3-0.7C176.2,73.5,176.1,73,176,72.5z"/>
	<path clip-path="url(#SVGID_2_)" fill="#ECB4AA" d="M154.3,56.1c-0.2,0.4-0.5,0.8-0.8,1c-0.3,0.2-0.7,0.3-1.1,0.3
		c-0.7,0-1.4,0-1.9-0.4c-0.5-0.4-0.8-1.1-0.7-1.7c0-0.7,0.3-1.3,0.7-1.8c0.8-1.3,2.3-2.2,3.8-2.3c0.5,0,1,0.1,1.5,0.4
		C157.1,52.7,154.9,55,154.3,56.1z"/>
	<path clip-path="url(#SVGID_2_)" fill="#ECB4AA" d="M159.4,56.1c-0.2,0.4-0.5,0.8-0.8,1c-0.3,0.2-0.7,0.3-1.1,0.3
		c-0.7,0-1.4,0-1.9-0.4c-0.5-0.4-0.8-1.1-0.7-1.7c0-0.7,0.3-1.3,0.7-1.8c0.8-1.3,2.3-2.2,3.8-2.3c0.5,0,1,0.1,1.5,0.4
		C162.2,52.7,160,55,159.4,56.1z"/>
	<path clip-path="url(#SVGID_2_)" fill="#ECB4AA" d="M164.5,56.1c-0.2,0.4-0.5,0.8-0.8,1c-0.3,0.2-0.7,0.3-1.1,0.3
		c-0.7,0-1.4,0-1.9-0.4c-0.5-0.4-0.8-1.1-0.7-1.7c0-0.7,0.3-1.3,0.7-1.8c0.8-1.3,2.3-2.2,3.8-2.3c0.5,0,1,0.1,1.5,0.4
		C167.3,52.7,165.1,55,164.5,56.1z"/>
	<path clip-path="url(#SVGID_2_)" fill="#ECB4AA" d="M169.6,56.1c-0.2,0.4-0.5,0.8-0.8,1c-0.3,0.2-0.7,0.3-1.1,0.3
		c-0.7,0-1.4,0-1.9-0.4c-0.5-0.4-0.8-1.1-0.7-1.7c0-0.7,0.3-1.3,0.7-1.8c0.8-1.3,2.3-2.2,3.8-2.3c0.5,0,1,0.1,1.5,0.4
		C172.4,52.7,170.2,55,169.6,56.1z"/>
	<path clip-path="url(#SVGID_2_)" fill="#ECB4AA" d="M169.4,67.5c-1-1.1-2.6-2-4-1.5c-1.4,0.5-2.1,2.2-1.6,3.6
		c0.2,0.4,0.4,0.8,0.5,1.3c0.1,0.4,0.2,0.8,0.3,1.2c0.3,1.1,1.2,2,2.2,2.5c1,0.5,2.2,0.6,3.3,0.6C174.4,74.8,170.9,69.1,169.4,67.5z
		"/>
	<path clip-path="url(#SVGID_2_)" fill="#942E41" d="M11.3,66.4c-1-0.4-2-0.8-3-1.2c-0.6-0.2-1.2-0.5-1.9-0.5c-1.5,0-2.8,1.5-3.1,3
		c-0.5,2.1,0.2,4.5,1.7,6.1c1.5,1.6,3.7,2.4,5.9,2.5c1.6,0,3.3-0.4,4.5-1.5c1-0.9,1.5-2.2,1.7-3.6c0.1-0.9,0.1-1.8-0.1-2.7
		c-0.2-1.1-0.1-1.2-1.1-1.2C14.3,67.3,12.9,67.1,11.3,66.4z"/>
	<path clip-path="url(#SVGID_2_)" fill="#ECB4AA" d="M186.2,54.9c-0.3-0.7-0.8-1.4-1.6-1.6c-0.8-0.2-1.6,0.2-2.1,0.8
		c-0.5,0.6-0.7,1.4-0.9,2.1c-0.4,1.6-0.7,3.3-0.4,4.9c0.3,1.6,1.4,3.2,3,3.6c0.4,0.1,0.9,0.1,1.2,0c0.9-0.4,1-1.6,1-2.5
		C186.5,59.9,187.1,57.1,186.2,54.9z"/>
	<path clip-path="url(#SVGID_2_)" fill="#ECB4AA" d="M217.6,47.2c0.3-0.7,0.8-1.4,1.6-1.6c0.8-0.2,1.6,0.2,2.1,0.8s0.7,1.4,0.9,2.1
		c0.4,1.6,0.7,3.3,0.4,4.9c-0.3,1.6-1.4,3.2-3,3.6c-0.4,0.1-0.9,0.1-1.2,0c-0.9-0.4-1-1.6-1-2.5C217.3,52.2,216.6,49.4,217.6,47.2z"
		/>
	<path clip-path="url(#SVGID_2_)" fill="#272425" d="M197,58.4c-0.3-0.8-1-1.5-1.9-1.1c-0.7,0.4-1,1.2-1.2,2c-0.2,1-0.1,2.1,0.8,2.6
		c1,0.6,2,0,2.4-1C197.5,60.2,197.5,59.1,197,58.4z"/>
	<path clip-path="url(#SVGID_2_)" fill="#272425" d="M208.2,58.7c-0.1-0.6-0.4-1.1-0.9-1.4c-0.4-0.3-0.9-0.3-1.3-0.1
		c-0.4,0-0.7,0.3-0.9,0.7c-0.2,0.5-0.3,1.1-0.3,1.7c0,1.1,0.4,2.2,1.6,2.2c0.1,0,0.1,0,0.2,0c0.2,0,0.5-0.1,0.7-0.2
		C208.3,61,208.4,59.6,208.2,58.7z"/>
	<path clip-path="url(#SVGID_2_)" fill="#272425" d="M14,53.6C14,53,13.7,52.3,13,52.2c-0.7-0.2-1.3,0.2-1.6,0.8
		c-0.5,1-0.4,2.7,0.9,3c1,0.3,1.7-0.6,1.7-1.4c0-0.1,0-0.2,0-0.4C14,54,14,53.8,14,53.6z"/>
	<g clip-path="url(#SVGID_2_)">
		<path fill="#D470B6" d="M-12.2,44.3c1.9-1.8,4.6-3.4,7.2-2.8c1.4,0.3,2.8,1.3,4.2,1.2c0.6,0,1.2-0.3,1.7-0.5
			c0.6-0.3,1.2-0.6,1.7-1.1c0.6-0.6,0.9-1.3,1.3-2c0.8-1.3,2-2.4,3.4-3.3c0.5-0.3,1-0.5,1.5-0.6c0.7-0.1,1.3,0.2,2,0.3
			c2.3,0.4,4.7-0.6,6.3-2.3c0.4-0.4,0.8-0.9,1.1-1.3c0.2-0.8,0.2-1.6,0.2-2.4c-0.2-1.9-1.2-3.6-2.4-5c-1.7-2-3.9-3.6-6.4-3.9
			c-2.5-0.2-5.3,1.3-6.2,3.9c-0.1,0.4-0.3,0.9-0.6,1.1c-0.4,0.2-0.9-0.1-1.3-0.4c-4.7-3.4-11.5-1.9-15.6,2.5
			c-3.4,3.6-6.8,11.2-5.9,16.6c0.3,2.1,2.9,2.7,5,3C-14.1,46.3-13.2,45.2-12.2,44.3z"/>
		<path fill="#A63895" d="M17.1,33.2c-1.6,1.7-4,2.7-6.3,2.3c-0.7-0.1-1.3-0.4-2-0.3c-0.5,0-1,0.3-1.5,0.6C6,36.6,4.8,37.7,4,39
			c-0.4,0.7-0.8,1.4-1.3,2c-0.5,0.5-1.1,0.8-1.7,1.1c-0.5,0.3-1.1,0.5-1.7,0.5c-1.5,0.1-2.8-0.8-4.2-1.2c-2.6-0.6-5.2,1-7.2,2.8
			c-1,0.9-1.9,2-2.9,2.9c0.5,0.1,1.1,0.2,1.5,0.2c3,0.5,6.2,0.6,9.3,0.2c4.5-0.6,8.8-2.2,13-4c2.1-0.9,4.3-1.8,5.9-3.6
			c1.5-1.7,2.4-3.9,3.1-6.1c0.2-0.7,0.4-1.4,0.6-2.1C17.9,32.3,17.5,32.8,17.1,33.2z"/>
	</g>
	<path clip-path="url(#SVGID_2_)" fill="#D08E83" d="M183.8,58.1c-0.1-0.2-0.1-0.4-0.3-0.5c-0.1-0.1-0.3-0.2-0.5-0.2
		c-0.4,0.1-0.5,0.6-0.5,0.9c0,0.3,0,0.6,0,0.9c0,0.5,0,1.1,0.2,1.6c0.2,0.6,1.3,1.7,1.6,0.7C184.6,60.6,184.1,58.9,183.8,58.1z"/>
	<g clip-path="url(#SVGID_2_)">
		<path fill="#A63895" d="M216,41.2c-1.1-1.3-2-2.9-3.5-3.6c-2.4-1.1-5.1,0.7-7.1,2.3c-2,1.7-4.6,3.5-7.1,2.6
			c-1-0.3-1.8-1.1-2.7-1.5c-2.4-1.1-5.6,0.2-6.5,2.7c-0.5,1.2-0.4,2.6-0.6,3.9c-0.2,1.3-0.7,2.7-1.9,3.3c-0.9,0.5-2,0.3-2.9-0.3
			c0.2,1.4,0.5,2.7,1,4.1c0.5,1.3,1.6,4.6,3,3.1c1.1-1.2,1.2-3.4,1.7-4.9c1-2.8,3.4-5.1,6.3-5.9c1.9-0.5,4-0.4,6-0.8
			c2.1-0.4,4.1-1.5,5.7-2.9c1.7,5.3,4.6,10.1,8.5,14.1c0.9,0.9,2.3,0.6,2.9-0.5c1.5-3.1,2.1-6.6,1.8-10c-0.1-0.9-0.3-1.9-0.4-2.8
			C218.4,43.4,217.1,42.5,216,41.2z"/>
		<path fill="#D470B6" d="M219.8,41c0.1-3.8-2.4-7.2-6.1-8.1c-3.9-1-7.9-2.5-12-2.7c-2.8-0.1-5.5,0.3-8.2,0.8
			c-2.4,0.4-4.9,0.9-6.7,2.4c-2.8,2.3-3.4,6.3-3.6,9.8c-0.1,2.4-0.1,4.9,0.2,7.3c0.9,0.5,2,0.7,2.9,0.3c1.2-0.6,1.7-2,1.9-3.3
			c0.2-1.3,0.2-2.6,0.6-3.9c1-2.5,4.2-3.8,6.5-2.7c0.9,0.4,1.7,1.1,2.7,1.5c2.5,0.9,5-1,7.1-2.6c2-1.7,4.7-3.4,7.1-2.3
			c1.6,0.7,2.4,2.3,3.5,3.6c1.1,1.2,2.4,2.1,4,2.7c0-0.2-0.1-0.5-0.1-0.7C219.8,42.5,219.8,41.7,219.8,41z"/>
	</g>
</g>
</svg>
