<?xml version="1.0" encoding="utf-8"?>
<!-- Generator: Adobe Illustrator 18.0.0, SVG Export Plug-In . SVG Version: 6.00 Build 0)  -->
<!DOCTYPE svg PUBLIC "-//W3C//DTD SVG 1.1//EN" "http://www.w3.org/Graphics/SVG/1.1/DTD/svg11.dtd">
<svg version="1.1" id="Layer_1" xmlns="http://www.w3.org/2000/svg" xmlns:xlink="http://www.w3.org/1999/xlink" x="0px" y="0px"
	 viewBox="27 101.3 367 393" enable-background="new 27 101.3 367 393" xml:space="preserve">
<ellipse opacity="0.12" fill="#263238" cx="207.6" cy="465.5" rx="92.5" ry="13.1"/>
<g id="freepik--Device--inject-2">
	<path fill="#263238" d="M142.4,155.9h134.3c6.7,0,12.2,5.5,12.2,12.2v285.2c0,6.7-5.5,12.2-12.2,12.2H142.4
		c-6.7,0-12.2-5.5-12.2-12.2V168.1C130.2,161.4,135.6,155.9,142.4,155.9z"/>
	<g>
		<defs>
			<path id="SVGID_1_" d="M142.4,155.9h134.3c6.7,0,12.2,5.5,12.2,12.2v285.2c0,6.7-5.5,12.2-12.2,12.2H142.4
				c-6.7,0-12.2-5.5-12.2-12.2V168.1C130.2,161.4,135.6,155.9,142.4,155.9z"/>
		</defs>
		<clipPath id="SVGID_2_">
			<use xlink:href="#SVGID_1_"  overflow="visible"/>
		</clipPath>
		<g clip-path="url(#SVGID_2_)">
			<path opacity="0.2" fill="#FFFFFF" enable-background="new    " d="M143.8,155.9c-7.5,0-13.7,6.1-13.7,13.7c0,0,0,0,0,0v282.3
				c0,4.1,1.8,7.9,4.9,10.5l92.6-306.4H143.8z"/>
			<path fill="none" stroke="#FFFFFF" stroke-linecap="round" stroke-linejoin="round" d="M214.9,456.6c0-3-2.4-5.4-5.4-5.4
				s-5.4,2.4-5.4,5.4s2.4,5.4,5.4,5.4c0,0,0,0,0,0C212.5,462,214.9,459.6,214.9,456.6C214.9,456.6,214.9,456.6,214.9,456.6z"/>
		</g>
	</g>
	<path fill="none" stroke="#263238" stroke-linecap="round" stroke-linejoin="round" d="M142.4,155.9h134.3
		c6.7,0,12.2,5.5,12.2,12.2v285.2c0,6.7-5.5,12.2-12.2,12.2H142.4c-6.7,0-12.2-5.5-12.2-12.2V168.1
		C130.2,161.4,135.6,155.9,142.4,155.9z"/>
	
		<rect x="137.2" y="176.9" fill="#FFFFFF" stroke="#263238" stroke-linecap="round" stroke-linejoin="round" width="144.5" height="270.2"/>
	
		<rect x="264.9" y="179.7" fill="none" stroke="#263238" stroke-width="0.8211" stroke-linecap="round" stroke-linejoin="round" width="12" height="6.6"/>
	
		<rect x="264.9" y="179.7" fill="#263238" stroke="#263238" stroke-width="0.7251" stroke-linecap="round" stroke-linejoin="round" width="9.3" height="6.6"/>
	
		<rect x="276.8" y="181.6" fill="#263238" stroke="#263238" stroke-width="0.7251" stroke-linecap="round" stroke-linejoin="round" width="1.7" height="2.9"/>
	
		<rect x="140.5" y="181.8" fill="#263238" stroke="#263238" stroke-width="0.8831" stroke-linecap="round" stroke-linejoin="round" width="2.2" height="3.8"/>
	
		<rect x="143.9" y="180.4" fill="#263238" stroke="#263238" stroke-width="0.8831" stroke-linecap="round" stroke-linejoin="round" width="2.2" height="5.1"/>
	
		<rect x="147.4" y="178.9" fill="#263238" stroke="#263238" stroke-width="0.8831" stroke-linecap="round" stroke-linejoin="round" width="2.2" height="6.7"/>
	<rect x="139.6" y="190" fill="#BA68C8" width="138.8" height="10.4"/>
</g>
<g id="freepik--text-balloons--inject-2">
	<path fill="#FFFFFF" stroke="#263238" stroke-miterlimit="10" d="M270,338.5h-42.7c-2.9,0-5.3,2.4-5.3,5.3v5.2l-10.5,4.7l10.5,2.8
		v3.3c0,2.9,2.4,5.3,5.3,5.3h42.7c2.9,0,5.3-2.4,5.3-5.3v-16.1C275.4,340.9,273,338.5,270,338.5C270.1,338.5,270.1,338.5,270,338.5z
		"/>
	<path fill="#263238" d="M241.2,352.2c0,1.2-1,2.2-2.2,2.2c-1.2,0-2.2-1-2.2-2.2c0-1.2,1-2.2,2.2-2.2c0,0,0,0,0,0
		C240.3,350,241.2,351,241.2,352.2C241.2,352.2,241.2,352.2,241.2,352.2z"/>
	<path fill="#263238" d="M250.9,352.2c0,1.2-1,2.2-2.2,2.2c-1.2,0-2.2-1-2.2-2.2c0-1.2,1-2.2,2.2-2.2C250,350,250.9,351,250.9,352.2
		C250.9,352.2,250.9,352.2,250.9,352.2z"/>
	<path fill="#263238" d="M260.7,352.2c0,1.2-1,2.2-2.2,2.2c-1.2,0-2.2-1-2.2-2.2c0-1.2,1-2.2,2.2-2.2l0,0
		C259.7,350,260.7,351,260.7,352.2z"/>
	<path fill="#FFFFFF" stroke="#263238" stroke-miterlimit="10" d="M270,212.7h-42.7c-2.9,0-5.3,2.4-5.3,5.3v5.2l-10.5,4.7l10.5,2.8
		v3.3c0,2.9,2.4,5.3,5.3,5.3h42.7c2.9,0,5.3-2.4,5.3-5.3v-16.1C275.4,215,273,212.7,270,212.7C270.1,212.7,270.1,212.7,270,212.7z"
		/>
	<path fill="#263238" d="M241.2,226.4c0,1.2-1,2.2-2.2,2.2c-1.2,0-2.2-1-2.2-2.2c0-1.2,1-2.2,2.2-2.2c0,0,0,0,0,0
		C240.3,224.2,241.2,225.2,241.2,226.4C241.2,226.4,241.2,226.4,241.2,226.4z"/>
	<path fill="#263238" d="M250.9,226.4c0,1.2-1,2.2-2.2,2.2c-1.2,0-2.2-1-2.2-2.2c0-1.2,1-2.2,2.2-2.2
		C250,224.2,250.9,225.2,250.9,226.4C250.9,226.4,250.9,226.4,250.9,226.4z"/>
	<path fill="#263238" d="M260.7,226.4c0,1.2-1,2.2-2.2,2.2s-2.2-1-2.2-2.2c0-1.2,1-2.2,2.2-2.2l0,0
		C259.7,224.2,260.7,225.2,260.7,226.4z"/>
	<path fill="#FFFFFF" stroke="#263238" stroke-miterlimit="10" d="M149.7,406.7h42.7c2.9,0,5.3,2.4,5.3,5.3v5.2l10.5,4.7l-10.5,2.8
		v3.3c0,2.9-2.4,5.3-5.3,5.3h-42.7c-2.9,0-5.3-2.4-5.3-5.3v-16C144.4,409.1,146.7,406.7,149.7,406.7
		C149.7,406.7,149.7,406.7,149.7,406.7z"/>
	<path fill="#263238" d="M178.5,420.5c0,1.2,1,2.2,2.2,2.2c1.2,0,2.2-1,2.2-2.2c0-1.2-1-2.2-2.2-2.2c0,0,0,0,0,0
		C179.5,418.3,178.5,419.3,178.5,420.5L178.5,420.5z"/>
	<path fill="#263238" d="M168.8,420.5c0,1.2,1,2.2,2.2,2.2c1.2,0,2.2-1,2.2-2.2c0-1.2-1-2.2-2.2-2.2
		C169.8,418.3,168.8,419.3,168.8,420.5L168.8,420.5z"/>
	<path fill="#263238" d="M159.1,420.5c0,1.2,1,2.2,2.2,2.2c1.2,0,2.2-1,2.2-2.2c0-1.2-1-2.2-2.2-2.2c0,0,0,0,0,0
		C160.1,418.3,159.1,419.3,159.1,420.5z"/>
	<path fill="#FFFFFF" stroke="#263238" stroke-miterlimit="10" d="M149.7,279.2h42.7c2.9,0,5.3,2.4,5.3,5.3v5.2l10.5,4.7l-10.5,2.8
		v3.3c0,2.9-2.4,5.3-5.3,5.3l0,0h-42.7c-2.9,0-5.3-2.4-5.3-5.3v-16.1C144.4,281.5,146.8,279.2,149.7,279.2z"/>
	<path fill="#263238" d="M178.5,292.9c0,1.2,1,2.2,2.2,2.2s2.2-1,2.2-2.2c0-1.2-1-2.2-2.2-2.2c0,0,0,0,0,0
		C179.5,290.7,178.5,291.7,178.5,292.9C178.5,292.9,178.5,292.9,178.5,292.9z"/>
	<path fill="#263238" d="M168.8,292.9c0,1.2,1,2.2,2.2,2.2c1.2,0,2.2-1,2.2-2.2c0-1.2-1-2.2-2.2-2.2
		C169.8,290.7,168.8,291.7,168.8,292.9C168.8,292.9,168.8,292.9,168.8,292.9z"/>
	<path fill="#263238" d="M159.1,292.9c0,1.2,1,2.2,2.2,2.2c1.2,0,2.2-1,2.2-2.2c0-1.2-1-2.2-2.2-2.2h0
		C160.1,290.7,159.1,291.7,159.1,292.9z"/>
</g>
<g id="freepik--character-1--inject-2">
	<path fill="#616161" stroke="#263238" stroke-linecap="round" stroke-linejoin="round" d="M211.8,275.7c-1-4.4-4.8-20.8-7.2-24
		c-2.8-3.7-18.7-12.4-21-13.9s-5.8-2.8-6.8-2.8c0,0-8.8,3-17.4,5.3s-13.4,3.8-14.4,6.7c-0.8,2.5-4.7,23.7-5.6,28.7L211.8,275.7z"/>
	<path fill="none" stroke="#263238" stroke-linecap="round" stroke-linejoin="round" d="M159.4,274.2c-0.4-6.3-0.7-12.5-1.1-18.8"/>
	<path fill="#FFFFFF" stroke="#263238" stroke-linecap="round" stroke-linejoin="round" d="M183.2,254.2c4.1-0.6,6.4-8,7-11.2
		c0.1-0.5,0.2-0.8,0.2-1.2c-3.3-1.9-6-3.5-6.9-4.1c-2.3-1.6-5.8-2.8-6.8-2.8c0,0-3.2,1.1-7.6,2.5c0.6,1.4,2.1,4.7,4.4,9.2
		C176.5,252.5,179.2,254.8,183.2,254.2z"/>
	<path fill="#B2B2B2" stroke="#263238" stroke-linecap="round" stroke-linejoin="round" d="M174.1,224.1c0,0-1.2,12.4-1.3,13.1
		s1.6,5.5,4.4,10s6.7,4.1,8.6,0.2c1.4-3.2,2.6-6.6,3.5-10c-3.8-0.8-7-3.3-8.8-6.7C177.7,224.9,175.3,222.4,174.1,224.1z"/>
	<path fill="#B2B2B2" stroke="#263238" stroke-linecap="round" stroke-linejoin="round" d="M182.4,194.7c0,0-7.7,2.3-10.4,8.3
		c-2.2,4.9-1,12.5,0,15c1,2.5,1.3,7.5,3.1,11.9s6.6,10.1,10.7,10.9c4.1,0.8,12.1-5.6,14.3-8.6c2.1-3,1.4-8.2,1.7-9
		c0.2-0.8,3.4-6.8,3-14.3C204.4,201.4,194.1,192.6,182.4,194.7z"/>
	<path fill="none" stroke="#263238" stroke-linecap="round" stroke-linejoin="round" d="M197.2,222.3c0,0,1.1,7-0.6,7.7
		s-4.9-0.4-5.4-1.3"/>
	<path fill="#263238" stroke="#263238" stroke-linecap="round" stroke-linejoin="round" d="M190.2,232.4c-1.9-0.9-3.5-2.2-4.7-3.8
		c0,0-2.6,4,0.2,5C187.3,234.2,189.2,233.7,190.2,232.4z"/>
	<path fill="#263238" d="M191.6,222.1c-0.3,0.9-0.9,1.6-1.4,1.5s-0.6-1-0.3-2s0.9-1.6,1.4-1.5C191.7,220.2,191.9,221.1,191.6,222.1z
		"/>
	<path fill="#263238" d="M200,223.4c-0.3,1-0.9,1.6-1.4,1.5c-0.5-0.2-0.6-1-0.3-2c0.3-0.9,0.9-1.6,1.4-1.5S200.3,222.4,200,223.4z"
		/>
	<path fill="#263238" d="M194.1,217.8c-0.2,0-0.4-0.1-0.5-0.2c-2.2-2.1-4.7-0.2-4.9-0.1c-0.3,0.3-0.8,0.2-1.1-0.1
		c-0.3-0.3-0.2-0.8,0.1-1.1l0,0c2-1.7,5-1.6,6.9,0.2c0.3,0.3,0.3,0.8,0,1.1C194.5,217.7,194.3,217.8,194.1,217.8z"/>
	<path fill="#263238" d="M202.9,220.4c-0.3,0-0.5-0.1-0.7-0.4c-0.3-0.6-0.9-1.1-1.6-1.2c-0.6,0-1.2,0.2-1.6,0.5
		c-0.3,0.3-0.8,0.3-1.1-0.1c-0.3-0.3-0.3-0.8,0.1-1.1l0,0c0.8-0.7,1.8-1,2.8-0.9c1.1,0.2,2.1,0.9,2.7,1.9c0.2,0.4,0.1,0.8-0.2,1.1
		C203.2,220.4,203.1,220.4,202.9,220.4L202.9,220.4z"/>
	<path fill="#263238" stroke="#263238" stroke-linecap="round" stroke-linejoin="round" d="M172.2,218.6c0.1,0.2,0.1,0.3,0.1,0.5
		v0.1c0.1,0.2,0.1,0.3,0.1,0.5v0.1c0,0.2,0.1,0.4,0.1,0.6l3.8-0.8c0,0,3.5,0.7,4-0.5c0.5-1.2-1.8-3-0.1-4.8c1.7-1.8,6.4-0.6,6.8-2.9
		s1.7-10.4,11.4-7.9c2,0.6,3.9,1.5,5.7,2.6c-2.4-6.6-11.6-13.2-21.8-11.4c0,0-7.7,2.3-10.4,8.3c-2.2,4.9-1,12.5,0,15
		c0.1,0.2,0.1,0.3,0.2,0.5L172.2,218.6z"/>
	<path fill="#B2B2B2" stroke="#263238" stroke-linecap="round" stroke-linejoin="round" d="M178.1,221.6c0,0-1.1-4.7-4-5.2
		c-2.9-0.5-4,3-3.4,6.1c0.6,3.1,3.7,6,6.5,5.2"/>
	<path fill="#B2B2B2" stroke="#263238" stroke-linecap="round" stroke-linejoin="round" d="M187.6,275.7c2.2-2.4,7.3-7.9,7.7-8.3
		c0.4-0.4,1.2-0.5,4-1.2c2.8-0.7,7.3-2.3,8-2.9c1.1-0.7,2.1-1.5,2.9-2.5c0.6-1,1.1-2,1.6-3c0.4-0.6,3.2-1.9,4-2.5
		c0.7-0.6,1.4-1.8,1.2-2.4s-4.4,0.6-8.3,1.4c-2.1,0.5-4.1,0.8-6.3,1c0,0,2.2-3.1,3.5-4.6c1.3-1.4,0.8-4.6-0.1-3.4
		c-1,1.2-7.1,7.5-8.4,7.9s-4.3,4.9-6.4,7c-1.7,1.7-15.3,10.5-19.9,13.4L187.6,275.7z"/>
	<line fill="none" stroke="#263238" stroke-linecap="round" stroke-linejoin="round" x1="211.7" y1="257.8" x2="207.6" y2="259.3"/>
	<line fill="none" stroke="#263238" stroke-linecap="round" stroke-linejoin="round" x1="279.4" y1="275.7" x2="141.7" y2="275.7"/>
</g>
<g id="freepik--character-2--inject-2">
	<path fill="#FFFFFF" stroke="#263238" stroke-linecap="round" stroke-linejoin="round" d="M279,336.9c-0.4-3.2-2.2-15.7-4.8-21.5
		c-2.6-5.7-7.4-10-13.4-11.8c-4.8-1.5-11.1-2.7-14.3-2.2c0,0-10.4,3.6-14.9,4.6c-4.5,1-9.1,4.2-11.1,6.9
		c-1.7,2.4-10.5,20.2-12.4,24.1H279z"/>
	<path fill="#BA68C8" stroke="#263238" stroke-linecap="round" stroke-linejoin="round" d="M279,336.9c-0.4-3.2-2.2-15.7-4.8-21.5
		c-2.6-5.7-7.4-10-13.4-11.8c-4.8-1.5-11.1-2.7-14.3-2.2c0,0-7.2,2.5-12.2,3.9c-1.6,2.5-5.1,7.9-8.4,12.5
		c-4.2,5.9-5.9,14.4-3.6,19.1L279,336.9z"/>
	<path fill="#FFFFFF" stroke="#263238" stroke-linecap="round" stroke-linejoin="round" d="M239.8,294.8c1,3.9,1.4,8,1.1,12
		c-0.5,6.9-4,11.2-2.7,14.7s6.7,4.8,11.5,1.1c4.7-3.7,5.6-12.8,5.7-16.8c0.1-4,2-16.6,2-16.6s-5,5.9-10.9,6.2
		C240.7,295.7,239.8,294.8,239.8,294.8z"/>
	<path fill="#263238" d="M241.1,262.7c0,0-7.6,1.3-11,8c-3.4,6.4-1.8,17,1.6,23.4c4.2,8,3.9,10.7,4,17.8c0.1,1-0.2,1.9-0.9,2.6
		c-1.7,1.7-2-0.8-2.4,0.6c-0.5,1.4,4.2,4.6,9,0.4c3.1-2.7,3.8-10.3,2.4-14.7c-1.5-4.4-8.8-13.5-7.2-20.5c1.6-7.1,7.1-12.9,7.6-15.6
		C244.5,261.9,241.1,262.7,241.1,262.7z"/>
	<g>
		<defs>
			<path id="SVGID_3_" d="M241.1,262.7c0,0-7.6,1.3-11,8c-3.4,6.4-1.8,17,1.6,23.4c4.2,8,3.9,10.7,4,17.8c0.1,1-0.2,1.9-0.9,2.6
				c-1.7,1.7-2-0.8-2.4,0.6c-0.5,1.4,4.2,4.6,9,0.4c3.1-2.7,3.8-10.3,2.4-14.7c-1.5-4.4-8.8-13.5-7.2-20.5
				c1.6-7.1,7.1-12.9,7.6-15.6C244.5,261.9,241.1,262.7,241.1,262.7z"/>
		</defs>
		<clipPath id="SVGID_4_">
			<use xlink:href="#SVGID_3_"  overflow="visible"/>
		</clipPath>
		<g clip-path="url(#SVGID_4_)">
			<path fill="none" stroke="#636363" stroke-linecap="round" stroke-linejoin="round" d="M241.4,266.8c0,0-13.1,7.8-11,19.9
				s15.1,15.7,13.9,28.1"/>
		</g>
	</g>
	<path fill="none" stroke="#263238" stroke-linecap="round" stroke-linejoin="round" d="M241.1,262.7c0,0-7.6,1.3-11,8
		c-3.4,6.4-1.8,17,1.6,23.4c4.2,8,3.9,10.7,4,17.8c0.1,1-0.2,1.9-0.9,2.6c-1.7,1.7-2-0.8-2.4,0.6c-0.5,1.4,4.2,4.6,9,0.4
		c3.1-2.7,3.8-10.3,2.4-14.7c-1.5-4.4-8.8-13.5-7.2-20.5c1.6-7.1,7.1-12.9,7.6-15.6C244.5,261.9,241.1,262.7,241.1,262.7z"/>
	<path fill="#FFFFFF" stroke="#263238" stroke-linecap="round" stroke-linejoin="round" d="M262,336.9H279v-0.2v-0.1l0,0v-0.2l0,0
		v-0.2v-0.1V336v-0.1v-0.2l0,0v-0.2v-0.1v-0.2v-0.1c0-0.1,0-0.2,0-0.2v-0.1c0-0.1,0-0.2,0-0.3v-0.1c0-0.1,0-0.2,0-0.2v-0.1
		c0-0.1,0-0.2,0-0.2v-0.1l-0.1-0.3l0,0l-0.1-0.3v-0.1l-0.1-0.3l0,0c0-0.1,0-0.3-0.1-0.4l0,0c-0.1-0.4-0.1-0.8-0.2-1.2l0,0
		c0-0.1,0-0.3-0.1-0.4v0c0-0.1,0-0.3-0.1-0.4v-0.1c0-0.1,0-0.2-0.1-0.4V330c0-0.1,0-0.2-0.1-0.3v-0.1l-0.1-0.3v-0.2l-0.1-0.3v-0.1
		c0-0.1,0-0.2-0.1-0.3v-0.1c0-0.1,0-0.2-0.1-0.3v-0.2c0-0.1,0-0.2-0.1-0.3v-0.2c0-0.1,0-0.2-0.1-0.3v-0.2c0-0.1,0-0.2-0.1-0.3v-0.2
		c0-0.1,0-0.2-0.1-0.3V326c0-0.1,0-0.2-0.1-0.3c0-0.1,0-0.1,0-0.2c0-0.1,0-0.2-0.1-0.3V325l-0.9-0.6v-0.1c0-0.1-0.1-0.2-0.1-0.4
		v-0.1l-0.1-0.4l0,0c-0.1-0.3-0.1-0.6-0.2-0.9v-0.1c0-0.1-0.1-0.3-0.1-0.4V322l-0.1-0.3c0-0.1,0-0.1,0-0.2l-0.1-0.3
		c0-0.1,0-0.1,0-0.2c0-0.1,0-0.2-0.1-0.3l-0.1-0.2c0-0.1,0-0.2-0.1-0.3l-0.1-0.2l-0.1-0.2l-0.1-0.2c0-0.1,0-0.2-0.1-0.2l-0.1-0.2
		c0-0.1,0-0.1-0.1-0.2c0-0.1,0-0.1-0.1-0.2c0-0.1,0-0.2-0.1-0.2s0-0.1-0.1-0.2c0-0.1,0-0.1-0.1-0.2c0-0.1,0-0.1-0.1-0.2
		c0-0.1,0-0.1-0.1-0.2c0-0.1,0-0.1-0.1-0.2c-0.1-0.1,0-0.1-0.1-0.2s0-0.1-0.1-0.2l-0.1-0.2c0-0.1,0-0.1-0.1-0.2c0-0.1,0-0.1-0.1-0.2
		c0,0,0-0.1-0.1-0.2l-0.1-0.2c0-0.1,0-0.1-0.1-0.1l-0.1-0.2l-0.1-0.1c0-0.1-0.1-0.1-0.1-0.2c0,0,0-0.1,0-0.1l-0.1-0.3
		c-2.4-5.3-6.9-9.5-12.5-11.5c-0.7,2.6-2.6,9.9-2.2,15.9C260,325.6,261.3,333.4,262,336.9z"/>
	<path fill="#FFFFFF" stroke="#263238" stroke-linecap="round" stroke-linejoin="round" d="M242.1,263.2c0,0-4.3,3.3-5.6,6.9
		c-1.3,3.6-2.5,12.7-2.2,16.3s4.8,9.9,6.7,11.5c1.9,1.6,10.1-0.2,13.9-3.8c2.7-2.5,4.9-11.1,3.1-19.5
		C256.2,266,247.6,261.1,242.1,263.2z"/>
	<path fill="none" stroke="#263238" stroke-linecap="round" stroke-linejoin="round" d="M245.8,279.6c0,0,2.5-2.6,6.6-0.5"/>
	<path fill="none" stroke="#263238" stroke-linecap="round" stroke-linejoin="round" d="M239.7,278.1c-0.4-1.6-1.6-2.9-3.3-3.4"/>
	<path fill="none" stroke="#263238" stroke-linecap="round" stroke-linejoin="round" d="M241.7,277c0,0-0.2,2.1-1,2.9
		c-0.8,0.8-2.5,1.6-1.8,3.1c0.7,1.6,2.7,1.9,3.6,1"/>
	<path fill="none" stroke="#263238" stroke-linecap="round" stroke-linejoin="round" d="M236.7,272.6c0,0,1.9-2.4,5,0"/>
	<path fill="none" stroke="#263238" stroke-linecap="round" stroke-linejoin="round" d="M245.2,273.7c0,0,3.7-2.2,6.6,1.9"/>
	<path fill="none" stroke="#263238" stroke-linecap="round" stroke-linejoin="round" d="M238.7,286.6c0,0,1.6,2.1,5.9,1.6
		c4.3-0.6,5.3-2.4,5.3-2.4"/>
	<path fill="#263238" d="M248.9,279.5c0,0.6-0.5,1.1-1.1,1.1c-0.6,0-1.1-0.5-1.1-1.1c0-0.6,0.5-1.1,1.1-1.1l0,0
		C248.4,278.5,248.9,278.9,248.9,279.5z"/>
	<path fill="#263238" d="M239,277c0,0.6-0.5,1.1-1.1,1.1c-0.6,0-1.1-0.5-1.1-1.1c0-0.6,0.5-1.1,1.1-1.1l0,0
		C238.6,276,239,276.5,239,277z"/>
	<path fill="#263238" stroke="#263238" stroke-linecap="round" stroke-linejoin="round" d="M241.2,288.1c0,0,1.8,3.7,4.9,3.4
		c3.1-0.4,2.9-4.7,2.9-4.7C246.7,288.1,243.9,288.6,241.2,288.1z"/>
	<path fill="#263238" d="M251.4,253.5h-0.3c-4,0.5-9.3,1.3-12.5,3.9c-3.9,3.1-2.6,3.9,1,5.7c3.6,1.8,14.3,7.8,15.3,16.3
		c1,8.5-2.5,21.9-4.2,28c-1.7,6.1,0.6,10.2,3.8,13.1c1.5,1.4,3.5,2,5.5,1.8c1.8-0.2,4.1-0.7,5.6-1.9c0.2-0.1,2-2.1,1.7-2.3
		c-1.6-1.4-3.5,0.6-4.5-1.3c-2-3.9,1.1-8.5,3.2-11.7c1.7-2.6,4.6-4.2,6.3-6.7c1.7-2.7,2.7-5.8,3-9c0.8-6.8-0.5-14.1-2.9-20.5
		c-3.1-8.3-9.6-15.7-19-15.7C252.7,253.4,252.1,253.4,251.4,253.5z"/>
	<g>
		<defs>
			<path id="SVGID_5_" d="M251.4,253.5h-0.3c-4,0.5-9.3,1.3-12.5,3.9c-3.9,3.1-2.6,3.9,1,5.7c3.6,1.8,14.3,7.8,15.3,16.3
				c1,8.5-2.5,21.9-4.2,28c-1.7,6.1,0.6,10.2,3.8,13.1c1.5,1.4,3.5,2,5.5,1.8c1.8-0.2,4.1-0.7,5.6-1.9c0.2-0.1,2-2.1,1.7-2.3
				c-1.6-1.4-3.5,0.6-4.5-1.3c-2-3.9,1.1-8.5,3.2-11.7c1.7-2.6,4.6-4.2,6.3-6.7c1.7-2.7,2.7-5.8,3-9c0.8-6.8-0.5-14.1-2.9-20.5
				c-3.1-8.3-9.6-15.7-19-15.7C252.7,253.4,252.1,253.4,251.4,253.5z"/>
		</defs>
		<clipPath id="SVGID_6_">
			<use xlink:href="#SVGID_5_"  overflow="visible"/>
		</clipPath>
		<g clip-path="url(#SVGID_6_)">
			<path fill="none" stroke="#636363" stroke-linecap="round" stroke-linejoin="round" d="M233.6,257c0,0,11.7,1.3,19.2,11.4
				c7.5,10.2,9.6,17.1,9.4,26.5c-0.2,9.4,7.4,13.8,13.1,11.1"/>
			<path fill="none" stroke="#636363" stroke-linecap="round" stroke-linejoin="round" d="M243.9,254.1c0,0,15.2,2.9,20.1,18.1
				c4.9,15.2,2.9,24.5,9.5,25.8"/>
			<path fill="none" stroke="#636363" stroke-linecap="round" stroke-linejoin="round" d="M251.6,282.6c0,0,5.6,13.6,4.2,26.5
				s4.2,15.2,13.2,12.9"/>
		</g>
	</g>
	<path fill="none" stroke="#263238" stroke-linecap="round" stroke-linejoin="round" d="M251.4,253.5h-0.3c-4,0.5-9.3,1.3-12.5,3.9
		c-3.9,3.1-2.6,3.9,1,5.7c3.6,1.8,14.3,7.8,15.3,16.3c1,8.5-2.5,21.9-4.2,28c-1.7,6.1,0.6,10.2,3.8,13.1c1.5,1.4,3.5,2,5.5,1.8
		c1.8-0.2,4.1-0.7,5.6-1.9c0.2-0.1,2-2.1,1.7-2.3c-1.6-1.4-3.5,0.6-4.5-1.3c-2-3.9,1.1-8.5,3.2-11.7c1.7-2.6,4.6-4.2,6.3-6.7
		c1.7-2.7,2.7-5.8,3-9c0.8-6.8-0.5-14.1-2.9-20.5c-3.1-8.3-9.6-15.7-19-15.7C252.7,253.4,252.1,253.4,251.4,253.5z"/>
	<path fill="#FFFFFF" stroke="#263238" stroke-linecap="round" stroke-linejoin="round" d="M196.7,316.3c0.9,0.8,2,1.4,3.1,1.8
		c0,0,1.8,5.5,1.7,9.9c0,3,0.2,6,0.6,8.9h13.8c-2.5-4.3-4.7-8.9-6.4-13.6c-2.1-6.4-1.2-10-2.7-14.2c-1.5-4.2-2.1-6.2-4.6-9.4
		c-2.5-3.3-4.7-2.2-4.7-1.1c0,1.1,1.3,1.6,2.4,3.1c0.7,1.2,1.3,2.4,1.7,3.7c0,0-4.7,2.1-6.1,4.5
		C194.1,312.3,195.2,314.9,196.7,316.3z"/>
	<path fill="#FFFFFF" stroke="#263238" stroke-linecap="round" stroke-linejoin="round" d="M193.4,308.1c0,0-1.8,1.7-1.8,3.4
		c0,1.7,1.3,4,2,4s1-1.2,0.7-2.5S193.4,308.1,193.4,308.1z"/>
	<path fill="#FFFFFF" stroke="#263238" stroke-linecap="round" stroke-linejoin="round" d="M195.6,305.7c0,0-2.1,1.4-2.7,3
		c-0.4,1.5,0,3.1,0.9,4.3c0.7,1,2.7,1.2,3.3,0.7c0.6-0.6,0.1-1.8,0-2.5c-0.1-0.7-1.2-2.9-1.1-3.9c0.1-0.5,0.1-1,0.1-1.6L195.6,305.7
		z"/>
	<path fill="#FFFFFF" stroke="#263238" stroke-linecap="round" stroke-linejoin="round" d="M201.5,305.4c0,0-2.9-1.8-5.2-0.6
		c-2.2,1.2-2.1,3.7-1.4,5.5c0.8,1.8,2.8,2.8,3.7,2c0.9-0.8-0.1-2,0.1-3.7S201.5,305.4,201.5,305.4z"/>
	<path fill="#FFFFFF" stroke="#263238" stroke-linecap="round" stroke-linejoin="round" d="M204.4,308.5c0,0-2.4-3.1-4.5-2.9
		c-2.1,0.2-5.6,4.2-4.9,5.2c0.7,1,4.7-0.6,4.7-0.6s-1.1,3.7,1.7,4.5"/>
	<line fill="none" stroke="#263238" stroke-linecap="round" stroke-linejoin="round" x1="279.4" y1="336.9" x2="141.7" y2="336.9"/>
</g>
<g id="freepik--character-3--inject-2">
	<line fill="none" stroke="#263238" stroke-linecap="round" stroke-linejoin="round" x1="279.4" y1="403.2" x2="141.7" y2="403.2"/>
	<path fill="#263238" stroke="#263238" stroke-linecap="round" stroke-linejoin="round" d="M215.7,403c0,0,1.2-10.9-3-13.7
		s-22.5-16-29.6-17.6c-7.1-1.6-11.4-3.1-14.3-1.5s-14.6,12.2-19.5,15.6c-4.9,3.4-7.3,6.9-8,9.5c-0.4,2.3-0.6,4.6-0.4,6.9v1.1
		C141,403.2,216,402.7,215.7,403z"/>
	<path fill="#FFFFFF" stroke="#263238" stroke-linecap="round" stroke-linejoin="round" d="M168.9,370.1c-1.1,0.7-2.2,1.5-3.2,2.4
		c0,2.8,0.6,5.5,1.7,8.1c3.5,8.5,11.4,13.4,17.6,10.8c5.3-2.2,7.7-9,6.2-16.2c-2.5-1.5-5.2-2.7-8-3.6
		C176.1,370,171.8,368.5,168.9,370.1z"/>
	<path fill="#FFFFFF" stroke="#263238" stroke-linecap="round" stroke-linejoin="round" d="M170.6,357.4c0,0-0.3,8.3-0.9,11.8
		c-0.7,3.5-0.7,8.3,2.7,14.3c3.4,6,11.7,5.7,14.3,3.4c2.6-2.3,2-8.8,2-11.3c0-2.4,1.4-8.2,1.4-8.2s-7.9-3.1-12-5.8
		C174,358.9,171.9,356.6,170.6,357.4z"/>
	<path fill="#FFFFFF" stroke="#263238" stroke-linecap="round" stroke-linejoin="round" d="M192.1,335.3c0,0,3.3,5.6,4.1,7.2
		c0.6,1.5,0.5,3.2-0.4,4.5c-0.7,1,5.9,4.3,5.8,5.9c-0.1,1.7-0.7,2.6-2,4.5c-1.5,2.1-0.9,5.6-1.6,8.1c-0.5,2.1-1.2,2.6-3.4,3.4
		c-4.1,1.5-11.7,0.9-15.5-0.9c-3.8-1.9-5.2-5.3-6.5-7.7c-1.4-2.4-1.5-6.9-0.7-11.7s7.2-11.1,11.3-12.9
		C187.3,333.9,192.1,335.3,192.1,335.3z"/>
	<path fill="#263238" d="M196.1,360.4c-2.3,0.6-4.7,0.3-6.6-0.9c0,0,0,4.1,2,4.2S196.1,360.4,196.1,360.4z"/>
	<path fill="#263238" d="M192.1,349.4c0.2,0.9,0,1.7-0.5,1.9c-0.5,0.1-1-0.5-1.2-1.5c-0.2-0.9,0-1.7,0.5-1.9
		C191.4,347.8,191.9,348.5,192.1,349.4z"/>
	<path fill="none" stroke="#263238" stroke-linecap="round" stroke-linejoin="round" d="M186.9,346.7c1-1.4,2.6-2.2,4.3-2"/>
	<path fill="none" stroke="#263238" stroke-linecap="round" stroke-linejoin="round" d="M199.9,356.2c0,0-2.1,2.3-3.4,2.4
		c-1.3,0.2-2.8-1.6-2.1-2.8"/>
	<path fill="#263238" stroke="#263238" stroke-linecap="round" stroke-linejoin="round" d="M175.9,357.4c0.6-0.2,3.8,0.3,3.4-1.5
		s-1.4-2-0.7-3.4c0.7-1.3,7.6-4.6,6.1-7.3c-1-1.8-2.2-3.4-3.5-4.9c0,0,11.4-2.2,13.8-5.6c2.4-3.4-0.3-8.7-3.1-8.7s-1.5,0.9-9.1,3.4
		c-7.6,2.4-11.4-0.5-17.1,5.4c-5.7,6-3.9,17.6-1.8,21.3c2.2,3.7,6.5,6.6,8.7,5.8C174.7,361.2,174.2,357.9,175.9,357.4z"/>
	<path fill="#FFFFFF" stroke="#263238" stroke-linecap="round" stroke-linejoin="round" d="M177.9,358.6c0,0-5-6.4-8.4-4.3
		c-3.4,2,1.6,8.1,3.8,8.8s4.7-1,4.7-1"/>
</g>
<g id="freepik--Emojis--inject-2">
	<circle fill="none" stroke="#F5F6F1" stroke-miterlimit="10" cx="77.6" cy="262.9" r="23.4"/>
	<path fill="none" stroke="#F5F6F1" stroke-width="2" stroke-linecap="round" stroke-linejoin="round" d="M68.6,269.1
		c0,0,15.8,0.8,21.3-13.7"/>
	<path fill="#F5F6F1" d="M81.4,251.4c0.8,1.2,1,2.5,0.5,2.9c-0.6,0.4-1.7-0.2-2.5-1.4c-0.8-1.2-1-2.5-0.5-2.9
		C79.4,249.6,80.5,250.3,81.4,251.4z"/>
	<path fill="#F5F6F1" d="M71.1,258c0.8,1.2,1,2.5,0.5,2.9s-1.7-0.2-2.5-1.4c-0.8-1.2-1-2.5-0.5-2.9C69.2,256.2,70.3,256.8,71.1,258z
		"/>
	<path fill="none" stroke="#F5F6F1" stroke-miterlimit="10" d="M344.5,256.2c0.4,9.1,8.1,16.3,17.3,15.9s16.3-8.1,15.9-17.3
		c-0.4-9.1-8.1-16.2-17.2-15.9C351.2,239.3,344.1,247,344.5,256.2C344.5,256.2,344.5,256.2,344.5,256.2z"/>
	<path fill="none" stroke="#F5F6F1" stroke-width="2" stroke-linecap="round" stroke-linejoin="round" d="M368.8,255.4
		c0,0-8.8,6.9-17.9,0.7"/>
	<ellipse fill="#F5F6F1" cx="355.1" cy="250.4" rx="0.9" ry="1.8"/>
	<path fill="#F5F6F1" d="M362.8,250c0,1,0.4,1.8,0.9,1.8c0.5,0,0.9-0.8,0.9-1.8c0-1-0.4-1.8-0.9-1.8
		C363.2,248.2,362.8,249,362.8,250z"/>
	<circle fill="none" stroke="#F5F6F1" stroke-miterlimit="10" cx="92.3" cy="434.8" r="22.2"/>
	<path fill="none" stroke="#F5F6F1" stroke-miterlimit="10" d="M79.8,442c0,0,14.3-8.1,28-10.1c0,0,3.9,13-9.2,18
		C87.2,454.3,79.8,442,79.8,442z"/>
	<path fill="#F5F6F1" d="M82.6,435.8c-0.5,0-0.9-0.3-1.2-0.7l-3.2-6.3c-0.3-0.7,0-1.4,0.7-1.7c0.6-0.3,1.3,0,1.6,0.5l3.2,6.3
		c0.3,0.6,0.1,1.4-0.6,1.8C83,435.7,82.8,435.8,82.6,435.8z"/>
	<path fill="#F5F6F1" d="M99.8,429.5c-0.6,0-1.1-0.4-1.3-1l-1.5-7.1c-0.1-0.7,0.5-1.3,1.2-1.4c0.6,0,1.1,0.3,1.3,0.8l1.5,7.1
		c0.2,0.7-0.3,1.4-1,1.5L99.8,429.5z"/>
	<path fill="none" stroke="#F5F6F1" stroke-miterlimit="10" d="M102.4,448c-1.2-2.9-5.4-4.1-9.4-2.7c-2.1,0.7-3.8,2.1-5,3.9"/>
	<path fill="none" stroke="#F5F6F1" stroke-miterlimit="10" d="M349.9,336.4c-2.4,6.7,1.1,14.1,7.8,16.6c6.7,2.4,14.1-1.1,16.6-7.8
		c2.4-6.7-1.1-14.1-7.8-16.6C359.7,326.2,352.3,329.7,349.9,336.4C349.9,336.4,349.9,336.4,349.9,336.4z"/>
	<path fill="none" stroke="#F5F6F1" stroke-miterlimit="10" d="M369.3,345c0,0-8.3-4.7-16.3-5.9c0,0-2.3,7.6,5.4,10.5
		C365,352.2,369.3,345,369.3,345z"/>
	<path fill="#F5F6F1" d="M367.7,341.4c0.3,0,0.5-0.2,0.7-0.4l1.9-3.6c0.2-0.4,0-0.8-0.3-1c-0.4-0.2-0.8,0-1,0.3l-1.9,3.6
		c-0.2,0.4,0,0.8,0.3,1C367.5,341.3,367.6,341.4,367.7,341.4z"/>
	<path fill="#F5F6F1" d="M357.6,337.7c0.4,0,0.7-0.3,0.7-0.6l0.9-4.1c0.1-0.4-0.1-0.8-0.5-0.9c-0.4-0.1-0.8,0.1-0.9,0.5
		c0,0,0,0,0,0.1l-0.9,4.1c-0.1,0.4,0.2,0.8,0.6,0.9c0,0,0,0,0,0L357.6,337.7z"/>
	<path fill="none" stroke="#F5F6F1" stroke-miterlimit="10" d="M356.1,348.5c0.7-1.7,3.1-2.4,5.5-1.6c1.2,0.4,2.2,1.2,2.9,2.3"/>
	<circle fill="none" stroke="#F5F6F1" stroke-miterlimit="10" cx="315.8" cy="323.7" r="20.4"/>
	<path fill="#F5F6F1" d="M300,320.2c-0.4,0.1-0.9-0.2-1-0.6c-0.1-0.3,0.1-0.7,0.4-0.9l5.1-2.7l-3.4-0.1c-0.4,0-0.8-0.4-0.8-0.8
		c0-0.4,0.4-0.8,0.8-0.8l6.3,0.2c0.4,0,0.6,0.3,0.7,0.6c0,0.3-0.1,0.7-0.4,0.8l-7.6,4.1L300,320.2z"/>
	<path fill="#F5F6F1" d="M327.1,312.7c-0.1,0-0.1,0-0.2,0l-8.3,0.3c-0.4,0-0.8-0.3-0.8-0.8c0-0.3,0.1-0.6,0.4-0.7l5.6-3.5
		c0.4-0.2,0.8-0.1,1.1,0.3c0.2,0.4,0.1,0.9-0.3,1.1l-3.1,1.9l5.4-0.2c0.4,0,0.8,0.3,0.8,0.8C327.7,312.3,327.5,312.6,327.1,312.7
		L327.1,312.7z"/>
	<path fill="none" stroke="#F5F6F1" stroke-miterlimit="10" d="M299.6,323.8c4.3,8,12,12.5,19,10.6c7.1-1.9,11.3-9.8,11-18.8
		l-2.7,0.3c-8.7,0.9-17.2,3.3-25.2,7L299.6,323.8z"/>
	<path fill="none" stroke="#F5F6F1" stroke-miterlimit="10" d="M309.1,333.3c-0.1-0.4-0.1-0.8-0.1-1.2c0-4.6,4.1-8.4,9.1-8.4
		c3.4-0.1,6.6,1.7,8.2,4.7"/>
	<circle fill="none" stroke="#F5F6F1" stroke-miterlimit="10" cx="106.3" cy="324.3" r="15.1"/>
	<path fill="#F5F6F1" d="M118,321.8c0.3,0.1,0.5,0,0.7-0.3c0.2-0.3,0.1-0.6-0.2-0.8c0,0,0,0,0,0l-3.8-2l2.5-0.1
		c0.3,0,0.6-0.3,0.6-0.6c0-0.3-0.3-0.6-0.6-0.6c0,0,0,0,0,0l-4.7,0.2c-0.3,0-0.6,0.3-0.6,0.6c0,0.2,0.1,0.4,0.3,0.5l5.6,3L118,321.8
		z"/>
	<path fill="#F5F6F1" d="M97.9,316.2H98l6.1,0.2c0.3,0,0.6-0.2,0.6-0.6c0-0.2-0.1-0.4-0.3-0.5l-4.1-2.6c-0.3-0.2-0.6-0.1-0.8,0.1
		c0,0,0,0,0,0c-0.2,0.3-0.1,0.6,0.1,0.8c0,0,0,0,0,0l2.3,1.4l-4-0.1c-0.3,0-0.6,0.2-0.6,0.6c0,0,0,0,0,0
		C97.4,315.9,97.6,316.2,97.9,316.2z"/>
	<path fill="none" stroke="#F5F6F1" stroke-miterlimit="10" d="M118.2,324.4c-3.2,5.9-8.9,9.2-14.1,7.8c-5.2-1.4-8.4-7.2-8.1-13.9
		l2,0.2c6.5,0.7,12.7,2.4,18.6,5.2L118.2,324.4z"/>
	<path fill="none" stroke="#F5F6F1" stroke-miterlimit="10" d="M111.2,331.4c0-0.3,0.1-0.6,0.1-0.9c0-3.4-3-6.2-6.8-6.2
		c-2.5,0-4.9,1.3-6.1,3.5"/>
	<circle fill="none" stroke="#F5F6F1" stroke-miterlimit="10" cx="329.5" cy="176.2" r="23.4"/>
	<path fill="#F5F6F1" d="M319.9,168.9c0,1.4,0.6,2.6,1.3,2.6c0.7,0,1.3-1.2,1.3-2.6c0-1.4-0.6-2.6-1.3-2.6
		C320.4,166.3,319.9,167.5,319.9,168.9z"/>
	<path fill="#F5F6F1" d="M332,168.4c0,1.4,0.6,2.6,1.3,2.6s1.3-1.2,1.3-2.6c0-1.4-0.6-2.6-1.3-2.6S332,167,332,168.4z"/>
	
		<line fill="none" stroke="#F5F6F1" stroke-width="2" stroke-linecap="round" stroke-linejoin="round" x1="318.7" y1="161.5" x2="324.4" y2="167.7"/>
	
		<line fill="none" stroke="#F5F6F1" stroke-width="2" stroke-linecap="round" stroke-linejoin="round" x1="334" y1="161.1" x2="328.7" y2="167.6"/>
	<path fill="none" stroke="#F5F6F1" stroke-width="2" stroke-linecap="round" stroke-linejoin="round" d="M318.2,181.7
		c0,0,7.6-9,18-1.7"/>
	<circle fill="none" stroke="#F5F6F1" stroke-miterlimit="10" cx="57.8" cy="361.7" r="16.5"/>
	<path fill="#F5F6F1" d="M58,353.6c0.7,0.7,1,1.6,0.6,2c-0.4,0.3-1.2,0-1.9-0.7c-0.7-0.7-1-1.6-0.6-1.9
		C56.4,352.5,57.3,352.8,58,353.6z"/>
	<path fill="#F5F6F1" d="M51.5,359.1c0.7,0.7,1,1.6,0.6,2c-0.4,0.3-1.2,0-1.9-0.7c-0.7-0.7-1-1.6-0.6-2
		C49.9,358.1,50.8,358.4,51.5,359.1z"/>
	
		<line fill="none" stroke="#F5F6F1" stroke-width="2" stroke-linecap="round" stroke-linejoin="round" x1="55" y1="349.2" x2="55" y2="355.1"/>
	
		<line fill="none" stroke="#F5F6F1" stroke-width="2" stroke-linecap="round" stroke-linejoin="round" x1="46.9" y1="356.3" x2="52.7" y2="357.1"/>
	<path fill="none" stroke="#F5F6F1" stroke-width="2" stroke-linecap="round" stroke-linejoin="round" d="M64.9,359.3
		c0,0-8.2-1-10.1,7.7"/>
	<path fill="none" stroke="#F5F6F1" stroke-miterlimit="10" d="M124,130c9.5,7.7,11,21.7,3.3,31.2s-21.7,11-31.2,3.3
		c-5.9-4.8-9-12.4-8-20"/>
	<path fill="none" stroke="#F5F6F1" stroke-miterlimit="10" d="M102.9,126.3c1.1-0.4,2.2-0.6,3.4-0.8"/>
	<path fill="none" stroke="#F5F6F1" stroke-miterlimit="10" d="M97.6,154.5c0,0,14.3-8.1,28-10.1c0,0,3.9,13-9.2,18
		C105,166.8,97.6,154.5,97.6,154.5z"/>
	<path fill="none" stroke="#F5F6F1" stroke-miterlimit="10" d="M120.2,160.5c-1.2-2.9-5.4-4.1-9.4-2.7c-2.1,0.7-3.8,2.1-5,4"/>
	<path fill="none" stroke="#F5F6F1" stroke-miterlimit="10" d="M104.6,128.4c-1.9-3.2-6-4.2-9.2-2.3c-2,1.2-3.2,3.3-3.2,5.6
		c-3.3-1.7-7.3-0.3-9,3c-1,2-0.9,4.5,0.2,6.4c3.1,5.3,18,6.2,18,6.2S108.6,135.1,104.6,128.4z"/>
	<path fill="none" stroke="#F5F6F1" stroke-miterlimit="10" d="M126,125.8c0.3-3-1.8-5.7-4.8-6c-1.8-0.2-3.7,0.5-4.8,2
		c-1.3-2.7-4.5-3.8-7.2-2.5c-1.7,0.8-2.8,2.4-3,4.3c-0.5,4.9,8.6,12.8,8.6,12.8S125.3,132.1,126,125.8z"/>
	<path fill="none" stroke="#F5F6F1" stroke-miterlimit="10" d="M312.4,404.1c-7.3,5.9-8.4,16.5-2.5,23.8s16.5,8.4,23.8,2.5
		c4.5-3.7,6.9-9.4,6.1-15.2"/>
	<path fill="none" stroke="#F5F6F1" stroke-miterlimit="10" d="M328.5,401.2c-0.8-0.3-1.7-0.5-2.6-0.7"/>
	<path fill="none" stroke="#F5F6F1" stroke-miterlimit="10" d="M332.6,422.7c0,0-10.9-6.2-21.3-7.7c0,0-3,9.9,7,13.7
		C326.9,432.1,332.6,422.7,332.6,422.7z"/>
	<path fill="none" stroke="#F5F6F1" stroke-miterlimit="10" d="M315.3,427.3c0.9-2.2,4.1-3.2,7.2-2c1.6,0.5,2.9,1.6,3.8,3"/>
	<path fill="none" stroke="#F5F6F1" stroke-miterlimit="10" d="M327.2,402.8c1.5-2.4,4.6-3.2,7-1.8c1.5,0.9,2.4,2.5,2.5,4.3
		c2.5-1.3,5.6-0.3,6.9,2.2c0.8,1.6,0.7,3.5-0.2,5c-2.4,4-13.7,4.7-13.7,4.7S324.2,407.9,327.2,402.8z"/>
	<path fill="none" stroke="#F5F6F1" stroke-miterlimit="10" d="M310.9,400.9c-0.3-2.3,1.4-4.3,3.6-4.6c1.4-0.2,2.8,0.4,3.7,1.5
		c1-2,3.5-2.9,5.5-1.9c1.3,0.6,2.1,1.8,2.3,3.2c0.4,3.7-6.5,9.7-6.5,9.7S311.4,405.7,310.9,400.9z"/>
</g>
</svg>
